# xmcd CD database file
#
# Track frame offsets:
#	155
#	12727
#	27642
#	40802
#	54630
#	66462
#	80272
#	92467
#	103300
#	115877
#	125307
#	139005
#
# Disc length: 2002 seconds
#
# Revision: 0
# Processed by: cddbd v1.5.2PL0 Copyright (c) Steve Scherf et al.
# Submitted via: CDex 1.51
#
DISCID=a707d00c
DTITLE=Hannes Schoeman - Deurnag Walse
DYEAR=1996
DGENRE=Boeremusiek
TTITLE0=TINUS SE WALS
TTITLE1=OOM PIET SE WALS
TTITLE2=VONKELENDE OGIES
TTITLE3=BY DIE WATERVAL
TTITLE4=WALS VIR TANT LILY
TTITLE5=HARTSEER EN VERDRIET
TTITLE6=VERLEë WALS
TTITLE7=LOERIE WALS
TTITLE8=SON-ONDER-WALS
TTITLE9=STELLENBOSCH VERLANGE
TTITLE10=TOTSIENS MARIE
TTITLE11=SONOP OOR KLIPFONTEIN
EXTD=YEAR: 1996
EXTT0=
EXTT1=
EXTT2=
EXTT3=
EXTT4=
EXTT5=
EXTT6=
EXTT7=
EXTT8=
EXTT9=
EXTT10=
EXTT11=
PLAYORDER=
